<mxfile host="Electron" modified="2024-06-13T22:07:13.390Z" agent="Mozilla/5.0 (Windows NT 10.0; Win64; x64) AppleWebKit/537.36 (KHTML, like Gecko) draw.io/22.0.3 Chrome/114.0.5735.289 Electron/25.8.4 Safari/537.36" etag="VEkDbfndrfkSF6W-g1rG" version="22.0.3" type="device" pages="4">
  <diagram name="Home" id="9Jc-4X4ooxKCM6CivTMa">
    <mxGraphModel dx="2016" dy="1196" grid="1" gridSize="10" guides="1" tooltips="1" connect="1" arrows="1" fold="1" page="1" pageScale="1" pageWidth="1600" pageHeight="2000" math="0" shadow="0">
      <root>
        <mxCell id="0" />
        <mxCell id="1" parent="0" />
        <mxCell id="LTOJydqHXjHJdDWPLr5g-16" value="" style="verticalLabelPosition=bottom;shadow=0;dashed=0;align=center;html=1;verticalAlign=top;strokeWidth=1;shape=mxgraph.mockup.graphics.simpleIcon;strokeColor=#999999;" vertex="1" parent="1">
          <mxGeometry width="1600" height="880" as="geometry" />
        </mxCell>
        <mxCell id="LTOJydqHXjHJdDWPLr5g-1" value="" style="rounded=0;whiteSpace=wrap;html=1;" vertex="1" parent="1">
          <mxGeometry width="1600" height="80" as="geometry" />
        </mxCell>
        <mxCell id="LTOJydqHXjHJdDWPLr5g-18" value="" style="verticalLabelPosition=bottom;shadow=0;dashed=0;align=center;html=1;verticalAlign=top;strokeWidth=1;shape=mxgraph.mockup.graphics.simpleIcon;strokeColor=#999999;" vertex="1" parent="1">
          <mxGeometry x="55" y="15" width="50" height="50" as="geometry" />
        </mxCell>
        <mxCell id="LTOJydqHXjHJdDWPLr5g-3" value="Logo" style="text;html=1;strokeColor=none;fillColor=none;align=center;verticalAlign=middle;whiteSpace=wrap;rounded=0;" vertex="1" parent="1">
          <mxGeometry x="40" y="25" width="80" height="30" as="geometry" />
        </mxCell>
        <mxCell id="LTOJydqHXjHJdDWPLr5g-5" value="Home" style="rounded=0;whiteSpace=wrap;html=1;" vertex="1" parent="1">
          <mxGeometry x="800" y="20" width="120" height="40" as="geometry" />
        </mxCell>
        <mxCell id="LTOJydqHXjHJdDWPLr5g-6" value="Join" style="rounded=0;whiteSpace=wrap;html=1;" vertex="1" parent="1">
          <mxGeometry x="1280" y="20" width="120" height="40" as="geometry" />
        </mxCell>
        <mxCell id="LTOJydqHXjHJdDWPLr5g-7" value="Directory" style="rounded=0;whiteSpace=wrap;html=1;" vertex="1" parent="1">
          <mxGeometry x="1120" y="20" width="120" height="40" as="geometry" />
        </mxCell>
        <mxCell id="LTOJydqHXjHJdDWPLr5g-8" value="Discover" style="rounded=0;whiteSpace=wrap;html=1;" vertex="1" parent="1">
          <mxGeometry x="960" y="20" width="120" height="40" as="geometry" />
        </mxCell>
        <mxCell id="LTOJydqHXjHJdDWPLr5g-10" value="" style="html=1;shadow=0;dashed=0;align=center;verticalAlign=middle;shape=mxgraph.arrows2.arrow;dy=0.6;dx=40;direction=south;notch=0;" vertex="1" parent="1">
          <mxGeometry x="760" y="760" width="80" height="80" as="geometry" />
        </mxCell>
        <mxCell id="LTOJydqHXjHJdDWPLr5g-11" value="Scroll" style="text;html=1;strokeColor=none;fillColor=none;align=center;verticalAlign=middle;whiteSpace=wrap;rounded=0;" vertex="1" parent="1">
          <mxGeometry x="770" y="720" width="60" height="30" as="geometry" />
        </mxCell>
        <mxCell id="LTOJydqHXjHJdDWPLr5g-12" value="Member spotlights" style="rounded=0;whiteSpace=wrap;html=1;" vertex="1" parent="1">
          <mxGeometry y="1560" width="1600" height="320" as="geometry" />
        </mxCell>
        <mxCell id="LTOJydqHXjHJdDWPLr5g-13" value="Welcome message" style="rounded=0;whiteSpace=wrap;html=1;" vertex="1" parent="1">
          <mxGeometry x="320" y="930" width="960" height="60" as="geometry" />
        </mxCell>
        <mxCell id="LTOJydqHXjHJdDWPLr5g-14" value="Weather" style="rounded=0;whiteSpace=wrap;html=1;" vertex="1" parent="1">
          <mxGeometry x="1120" y="1040" width="480" height="480" as="geometry" />
        </mxCell>
        <mxCell id="LTOJydqHXjHJdDWPLr5g-25" style="edgeStyle=orthogonalEdgeStyle;rounded=0;orthogonalLoop=1;jettySize=auto;html=1;exitX=1;exitY=0.5;exitDx=0;exitDy=0;" edge="1" parent="1" source="LTOJydqHXjHJdDWPLr5g-15">
          <mxGeometry relative="1" as="geometry">
            <mxPoint x="1050" y="1280" as="targetPoint" />
          </mxGeometry>
        </mxCell>
        <mxCell id="LTOJydqHXjHJdDWPLr5g-15" value="News" style="rounded=0;whiteSpace=wrap;html=1;" vertex="1" parent="1">
          <mxGeometry y="1040" width="1080" height="480" as="geometry" />
        </mxCell>
        <mxCell id="LTOJydqHXjHJdDWPLr5g-17" value="Hero img" style="text;html=1;strokeColor=none;fillColor=none;align=center;verticalAlign=middle;whiteSpace=wrap;rounded=0;" vertex="1" parent="1">
          <mxGeometry x="770" y="430" width="60" height="30" as="geometry" />
        </mxCell>
        <mxCell id="LTOJydqHXjHJdDWPLr5g-4" value="&lt;font style=&quot;font-size: 20px;&quot;&gt;PortoCC&lt;/font&gt;" style="text;html=1;strokeColor=none;fillColor=none;align=center;verticalAlign=middle;whiteSpace=wrap;rounded=0;" vertex="1" parent="1">
          <mxGeometry x="150" width="380" height="80" as="geometry" />
        </mxCell>
        <mxCell id="LTOJydqHXjHJdDWPLr5g-19" value="" style="rounded=0;whiteSpace=wrap;html=1;" vertex="1" parent="1">
          <mxGeometry y="1920" width="1600" height="80" as="geometry" />
        </mxCell>
        <mxCell id="LTOJydqHXjHJdDWPLr5g-20" value="Nelson Monteiro, Portugal" style="text;html=1;strokeColor=none;fillColor=none;align=center;verticalAlign=middle;whiteSpace=wrap;rounded=0;" vertex="1" parent="1">
          <mxGeometry x="10" y="1930" width="420" height="60" as="geometry" />
        </mxCell>
        <mxCell id="LTOJydqHXjHJdDWPLr5g-21" value="Contact information" style="text;html=1;strokeColor=none;fillColor=none;align=center;verticalAlign=middle;whiteSpace=wrap;rounded=0;" vertex="1" parent="1">
          <mxGeometry x="1170" y="1930" width="420" height="60" as="geometry" />
        </mxCell>
        <mxCell id="LTOJydqHXjHJdDWPLr5g-22" value="Last modification" style="text;html=1;strokeColor=none;fillColor=none;align=center;verticalAlign=middle;whiteSpace=wrap;rounded=0;" vertex="1" parent="1">
          <mxGeometry x="585" y="1930" width="420" height="60" as="geometry" />
        </mxCell>
      </root>
    </mxGraphModel>
  </diagram>
  <diagram id="rncriWijId8YMEuLZk5F" name="Discover">
    <mxGraphModel dx="2016" dy="1196" grid="1" gridSize="10" guides="1" tooltips="1" connect="1" arrows="1" fold="1" page="1" pageScale="1" pageWidth="1600" pageHeight="2000" math="0" shadow="0">
      <root>
        <mxCell id="0" />
        <mxCell id="1" parent="0" />
        <mxCell id="qGJs7b_JIFEvdadz_PmN-3" value="" style="rounded=0;whiteSpace=wrap;html=1;" vertex="1" parent="1">
          <mxGeometry x="40" y="280" width="440" height="520" as="geometry" />
        </mxCell>
        <mxCell id="-Zo25kRNtJqOJ9kIemg0-1" value="" style="rounded=0;whiteSpace=wrap;html=1;" vertex="1" parent="1">
          <mxGeometry width="1600" height="80" as="geometry" />
        </mxCell>
        <mxCell id="CjwpZORWzetbiARGUuDT-1" value="" style="verticalLabelPosition=bottom;shadow=0;dashed=0;align=center;html=1;verticalAlign=top;strokeWidth=1;shape=mxgraph.mockup.graphics.simpleIcon;strokeColor=#999999;" vertex="1" parent="1">
          <mxGeometry x="55" y="15" width="50" height="50" as="geometry" />
        </mxCell>
        <mxCell id="CjwpZORWzetbiARGUuDT-2" value="Logo" style="text;html=1;strokeColor=none;fillColor=none;align=center;verticalAlign=middle;whiteSpace=wrap;rounded=0;" vertex="1" parent="1">
          <mxGeometry x="40" y="25" width="80" height="30" as="geometry" />
        </mxCell>
        <mxCell id="CjwpZORWzetbiARGUuDT-3" value="Home" style="rounded=0;whiteSpace=wrap;html=1;" vertex="1" parent="1">
          <mxGeometry x="800" y="20" width="120" height="40" as="geometry" />
        </mxCell>
        <mxCell id="CjwpZORWzetbiARGUuDT-4" value="Join" style="rounded=0;whiteSpace=wrap;html=1;" vertex="1" parent="1">
          <mxGeometry x="1280" y="20" width="120" height="40" as="geometry" />
        </mxCell>
        <mxCell id="CjwpZORWzetbiARGUuDT-5" value="Directory" style="rounded=0;whiteSpace=wrap;html=1;" vertex="1" parent="1">
          <mxGeometry x="1120" y="20" width="120" height="40" as="geometry" />
        </mxCell>
        <mxCell id="CjwpZORWzetbiARGUuDT-6" value="Discover" style="rounded=0;whiteSpace=wrap;html=1;" vertex="1" parent="1">
          <mxGeometry x="960" y="20" width="120" height="40" as="geometry" />
        </mxCell>
        <mxCell id="CjwpZORWzetbiARGUuDT-7" value="&lt;font style=&quot;font-size: 20px;&quot;&gt;PortoCC&lt;/font&gt;" style="text;html=1;strokeColor=none;fillColor=none;align=center;verticalAlign=middle;whiteSpace=wrap;rounded=0;strokeWidth=4;" vertex="1" parent="1">
          <mxGeometry x="150" width="380" height="80" as="geometry" />
        </mxCell>
        <mxCell id="-IgE7H6nFALj96EOGmVQ-1" value="" style="rounded=0;whiteSpace=wrap;html=1;" vertex="1" parent="1">
          <mxGeometry y="1920" width="1600" height="80" as="geometry" />
        </mxCell>
        <mxCell id="-IgE7H6nFALj96EOGmVQ-2" value="Nelson Monteiro, Portugal" style="text;html=1;strokeColor=none;fillColor=none;align=center;verticalAlign=middle;whiteSpace=wrap;rounded=0;" vertex="1" parent="1">
          <mxGeometry x="10" y="1930" width="420" height="60" as="geometry" />
        </mxCell>
        <mxCell id="-IgE7H6nFALj96EOGmVQ-3" value="Contact information" style="text;html=1;strokeColor=none;fillColor=none;align=center;verticalAlign=middle;whiteSpace=wrap;rounded=0;" vertex="1" parent="1">
          <mxGeometry x="1170" y="1930" width="420" height="60" as="geometry" />
        </mxCell>
        <mxCell id="-IgE7H6nFALj96EOGmVQ-4" value="Last modification" style="text;html=1;strokeColor=none;fillColor=none;align=center;verticalAlign=middle;whiteSpace=wrap;rounded=0;" vertex="1" parent="1">
          <mxGeometry x="585" y="1930" width="420" height="60" as="geometry" />
        </mxCell>
        <mxCell id="vFK1ZiAWT5eT2_vWahpD-2" value="Gallery" style="text;html=1;strokeColor=none;fillColor=none;align=center;verticalAlign=middle;whiteSpace=wrap;rounded=0;" vertex="1" parent="1">
          <mxGeometry x="770" y="220" width="60" height="30" as="geometry" />
        </mxCell>
        <mxCell id="vFK1ZiAWT5eT2_vWahpD-3" value="&lt;font style=&quot;font-size: 20px;&quot;&gt;Discover Porto&lt;/font&gt;" style="text;html=1;strokeColor=none;fillColor=none;align=center;verticalAlign=middle;whiteSpace=wrap;rounded=0;" vertex="1" parent="1">
          <mxGeometry x="580" y="120" width="440" height="80" as="geometry" />
        </mxCell>
        <mxCell id="_PmQAhRhFt9v2FuvSFiG-15" value="" style="verticalLabelPosition=bottom;shadow=0;dashed=0;align=center;html=1;verticalAlign=top;strokeWidth=1;shape=mxgraph.mockup.graphics.simpleIcon;strokeColor=#999999;" vertex="1" parent="1">
          <mxGeometry x="1190" y="280" width="370" height="240" as="geometry" />
        </mxCell>
        <mxCell id="_PmQAhRhFt9v2FuvSFiG-16" value="" style="verticalLabelPosition=bottom;shadow=0;dashed=0;align=center;html=1;verticalAlign=top;strokeWidth=1;shape=mxgraph.mockup.graphics.simpleIcon;strokeColor=#999999;" vertex="1" parent="1">
          <mxGeometry x="890" y="280" width="260" height="240" as="geometry" />
        </mxCell>
        <mxCell id="_PmQAhRhFt9v2FuvSFiG-17" value="" style="verticalLabelPosition=bottom;shadow=0;dashed=0;align=center;html=1;verticalAlign=top;strokeWidth=1;shape=mxgraph.mockup.graphics.simpleIcon;strokeColor=#999999;" vertex="1" parent="1">
          <mxGeometry x="520" y="560" width="400" height="240" as="geometry" />
        </mxCell>
        <mxCell id="_PmQAhRhFt9v2FuvSFiG-19" value="" style="verticalLabelPosition=bottom;shadow=0;dashed=0;align=center;html=1;verticalAlign=top;strokeWidth=1;shape=mxgraph.mockup.graphics.simpleIcon;strokeColor=#999999;" vertex="1" parent="1">
          <mxGeometry x="520" y="280" width="330" height="240" as="geometry" />
        </mxCell>
        <mxCell id="_PmQAhRhFt9v2FuvSFiG-20" value="" style="verticalLabelPosition=bottom;shadow=0;dashed=0;align=center;html=1;verticalAlign=top;strokeWidth=1;shape=mxgraph.mockup.graphics.simpleIcon;strokeColor=#999999;" vertex="1" parent="1">
          <mxGeometry x="960" y="560" width="300" height="240" as="geometry" />
        </mxCell>
        <mxCell id="_PmQAhRhFt9v2FuvSFiG-21" value="" style="verticalLabelPosition=bottom;shadow=0;dashed=0;align=center;html=1;verticalAlign=top;strokeWidth=1;shape=mxgraph.mockup.graphics.simpleIcon;strokeColor=#999999;" vertex="1" parent="1">
          <mxGeometry x="1300" y="560" width="260" height="240" as="geometry" />
        </mxCell>
        <mxCell id="_PmQAhRhFt9v2FuvSFiG-26" value="" style="rounded=0;whiteSpace=wrap;html=1;" vertex="1" parent="1">
          <mxGeometry x="240" y="920" width="1120" height="240" as="geometry" />
        </mxCell>
        <mxCell id="_PmQAhRhFt9v2FuvSFiG-28" value="&lt;font style=&quot;font-size: 20px;&quot;&gt;Demographics&lt;/font&gt;" style="text;html=1;strokeColor=none;fillColor=none;align=center;verticalAlign=middle;whiteSpace=wrap;rounded=0;" vertex="1" parent="1">
          <mxGeometry x="740" y="850" width="120" height="30" as="geometry" />
        </mxCell>
        <mxCell id="_PmQAhRhFt9v2FuvSFiG-29" value="&lt;h1&gt;Heading&lt;/h1&gt;&lt;p&gt;Lorem ipsum dolor sit amet, consectetur adipisicing elit, sed do eiusmod tempor incididunt ut labore et dolore magna aliqua.&lt;/p&gt;" style="text;html=1;strokeColor=none;fillColor=none;spacing=5;spacingTop=-20;whiteSpace=wrap;overflow=hidden;rounded=0;" vertex="1" parent="1">
          <mxGeometry x="290" y="980" width="240" height="120" as="geometry" />
        </mxCell>
        <mxCell id="_PmQAhRhFt9v2FuvSFiG-30" value="&lt;h1&gt;Heading&lt;/h1&gt;&lt;p&gt;Lorem ipsum dolor sit amet, consectetur adipisicing elit, sed do eiusmod tempor incididunt ut labore et dolore magna aliqua.&lt;/p&gt;" style="text;html=1;strokeColor=none;fillColor=none;spacing=5;spacingTop=-20;whiteSpace=wrap;overflow=hidden;rounded=0;" vertex="1" parent="1">
          <mxGeometry x="1070" y="980" width="240" height="120" as="geometry" />
        </mxCell>
        <mxCell id="_PmQAhRhFt9v2FuvSFiG-31" value="&lt;h1&gt;Heading&lt;/h1&gt;&lt;p&gt;Lorem ipsum dolor sit amet, consectetur adipisicing elit, sed do eiusmod tempor incididunt ut labore et dolore magna aliqua.&lt;/p&gt;" style="text;html=1;strokeColor=none;fillColor=none;spacing=5;spacingTop=-20;whiteSpace=wrap;overflow=hidden;rounded=0;" vertex="1" parent="1">
          <mxGeometry x="680" y="980" width="240" height="120" as="geometry" />
        </mxCell>
        <mxCell id="qGJs7b_JIFEvdadz_PmN-1" value="&lt;h1&gt;History&lt;/h1&gt;&lt;p&gt;Lorem ipsum dolor sit amet, consectetur adipiscing elit, sed do eiusmod tempor incididunt ut labore et dolore magna aliqua. Eget dolor morbi non arcu risus quis varius. Ut lectus arcu bibendum at varius vel. Eu scelerisque felis imperdiet proin fermentum leo. Non pulvinar neque laoreet suspendisse. Magna fringilla urna porttitor rhoncus dolor purus non enim praesent. Volutpat diam ut venenatis tellus in. Turpis in eu mi bibendum neque. Phasellus faucibus scelerisque eleifend donec. Non pulvinar neque laoreet suspendisse interdum consectetur libero id. Velit sed ullamcorper morbi tincidunt ornare massa eget egestas. Sed euismod nisi porta lorem mollis aliquam. Morbi tincidunt augue interdum velit. Etiam tempor orci eu lobortis elementum nibh tellus molestie. Velit euismod in pellentesque massa placerat duis ultricies lacus sed.&lt;/p&gt;&lt;p&gt;Arcu dictum varius duis at consectetur. Morbi tincidunt augue interdum velit euismod in pellentesque massa. Pharetra diam sit amet nisl. Ultrices mi tempus imperdiet nulla malesuada pellentesque elit eget. Nisi vitae suscipit tellus mauris a diam maecenas. Mauris pellentesque pulvinar pellentesque habitant morbi. Eget aliquet nibh praesent tristique magna sit amet purus gravida. Mattis rhoncus urna neque viverra justo nec ultrices dui sapien. Amet nisl purus in mollis. Arcu non odio euismod lacinia at quis.&lt;/p&gt;&lt;p&gt;Velit sed ullamcorper morbi tincidunt ornare massa eget egestas purus. Risus in hendrerit gravida rutrum quisque non tellus. Justo eget magna fermentum iaculis eu non diam. Tempus quam pellentesque nec nam aliquam. Odio tempor orci dapibus ultrices in. Cras pulvinar mattis nunc sed blandit. Porttitor eget dolor morbi non arcu risus quis.&lt;br&gt;&lt;/p&gt;" style="text;html=1;strokeColor=none;fillColor=none;spacing=5;spacingTop=-20;whiteSpace=wrap;overflow=hidden;rounded=0;" vertex="1" parent="1">
          <mxGeometry x="80" y="280" width="360" height="520" as="geometry" />
        </mxCell>
        <mxCell id="qGJs7b_JIFEvdadz_PmN-4" value="Current events" style="rounded=0;whiteSpace=wrap;html=1;" vertex="1" parent="1">
          <mxGeometry x="640" y="1280" width="720" height="480" as="geometry" />
        </mxCell>
        <mxCell id="qGJs7b_JIFEvdadz_PmN-5" value="&lt;h1&gt;Current events&lt;/h1&gt;&lt;p&gt;Lorem ipsum dolor sit amet, consectetur adipisicing elit, sed do eiusmod tempor incididunt ut labore et dolore magna aliqua.&lt;/p&gt;" style="text;html=1;strokeColor=none;fillColor=none;spacing=5;spacingTop=-20;whiteSpace=wrap;overflow=hidden;rounded=0;" vertex="1" parent="1">
          <mxGeometry x="245" y="1400" width="315" height="240" as="geometry" />
        </mxCell>
      </root>
    </mxGraphModel>
  </diagram>
  <diagram id="96MiM-nGg6Q593nv6gJt" name="Directory">
    <mxGraphModel dx="2016" dy="1196" grid="1" gridSize="10" guides="1" tooltips="1" connect="1" arrows="1" fold="1" page="1" pageScale="1" pageWidth="1600" pageHeight="1500" math="0" shadow="0">
      <root>
        <mxCell id="0" />
        <mxCell id="1" parent="0" />
        <mxCell id="af-1cBShx83j1TZW54wE-1" value="" style="rounded=0;whiteSpace=wrap;html=1;" vertex="1" parent="1">
          <mxGeometry x="440" y="240" width="1080" height="280" as="geometry" />
        </mxCell>
        <mxCell id="v2m5doxko5JAg_ua9qTM-1" value="" style="rounded=0;whiteSpace=wrap;html=1;" vertex="1" parent="1">
          <mxGeometry y="1420" width="1600" height="80" as="geometry" />
        </mxCell>
        <mxCell id="v2m5doxko5JAg_ua9qTM-2" value="Nelson Monteiro, Portugal" style="text;html=1;strokeColor=none;fillColor=none;align=center;verticalAlign=middle;whiteSpace=wrap;rounded=0;" vertex="1" parent="1">
          <mxGeometry x="10" y="1430" width="420" height="60" as="geometry" />
        </mxCell>
        <mxCell id="v2m5doxko5JAg_ua9qTM-3" value="Contact information" style="text;html=1;strokeColor=none;fillColor=none;align=center;verticalAlign=middle;whiteSpace=wrap;rounded=0;" vertex="1" parent="1">
          <mxGeometry x="1170" y="1430" width="420" height="60" as="geometry" />
        </mxCell>
        <mxCell id="v2m5doxko5JAg_ua9qTM-4" value="Last modification" style="text;html=1;strokeColor=none;fillColor=none;align=center;verticalAlign=middle;whiteSpace=wrap;rounded=0;" vertex="1" parent="1">
          <mxGeometry x="585" y="1430" width="420" height="60" as="geometry" />
        </mxCell>
        <mxCell id="rtJxO4XldpgjFj9Skopt-1" value="" style="rounded=0;whiteSpace=wrap;html=1;" vertex="1" parent="1">
          <mxGeometry width="1600" height="80" as="geometry" />
        </mxCell>
        <mxCell id="rtJxO4XldpgjFj9Skopt-2" value="" style="verticalLabelPosition=bottom;shadow=0;dashed=0;align=center;html=1;verticalAlign=top;strokeWidth=1;shape=mxgraph.mockup.graphics.simpleIcon;strokeColor=#999999;" vertex="1" parent="1">
          <mxGeometry x="55" y="15" width="50" height="50" as="geometry" />
        </mxCell>
        <mxCell id="rtJxO4XldpgjFj9Skopt-3" value="Logo" style="text;html=1;strokeColor=none;fillColor=none;align=center;verticalAlign=middle;whiteSpace=wrap;rounded=0;" vertex="1" parent="1">
          <mxGeometry x="40" y="25" width="80" height="30" as="geometry" />
        </mxCell>
        <mxCell id="rtJxO4XldpgjFj9Skopt-4" value="Home" style="rounded=0;whiteSpace=wrap;html=1;" vertex="1" parent="1">
          <mxGeometry x="800" y="20" width="120" height="40" as="geometry" />
        </mxCell>
        <mxCell id="rtJxO4XldpgjFj9Skopt-5" value="Join" style="rounded=0;whiteSpace=wrap;html=1;" vertex="1" parent="1">
          <mxGeometry x="1280" y="20" width="120" height="40" as="geometry" />
        </mxCell>
        <mxCell id="rtJxO4XldpgjFj9Skopt-6" value="Directory" style="rounded=0;whiteSpace=wrap;html=1;" vertex="1" parent="1">
          <mxGeometry x="1120" y="20" width="120" height="40" as="geometry" />
        </mxCell>
        <mxCell id="rtJxO4XldpgjFj9Skopt-7" value="Discover" style="rounded=0;whiteSpace=wrap;html=1;" vertex="1" parent="1">
          <mxGeometry x="960" y="20" width="120" height="40" as="geometry" />
        </mxCell>
        <mxCell id="rtJxO4XldpgjFj9Skopt-8" value="&lt;font style=&quot;font-size: 20px;&quot;&gt;PortoCC&lt;/font&gt;" style="text;html=1;strokeColor=none;fillColor=none;align=center;verticalAlign=middle;whiteSpace=wrap;rounded=0;" vertex="1" parent="1">
          <mxGeometry x="150" width="380" height="80" as="geometry" />
        </mxCell>
        <mxCell id="Ekm4awPdQ3NhtNFBM7wf-1" value="" style="verticalLabelPosition=bottom;shadow=0;dashed=0;align=center;html=1;verticalAlign=top;strokeWidth=1;shape=mxgraph.mockup.graphics.simpleIcon;strokeColor=#999999;" vertex="1" parent="1">
          <mxGeometry x="80" y="160" width="280" height="400" as="geometry" />
        </mxCell>
        <mxCell id="Ekm4awPdQ3NhtNFBM7wf-2" value="President" style="text;html=1;strokeColor=none;fillColor=none;align=center;verticalAlign=middle;whiteSpace=wrap;rounded=0;" vertex="1" parent="1">
          <mxGeometry x="190" y="345" width="60" height="30" as="geometry" />
        </mxCell>
        <mxCell id="Ekm4awPdQ3NhtNFBM7wf-3" value="&lt;h1&gt;President message&lt;/h1&gt;&lt;p&gt;Lorem ipsum dolor sit amet, consectetur adipisicing elit, sed do eiusmod tempor incididunt ut labore et dolore magna aliqua.&lt;/p&gt;" style="text;html=1;strokeColor=none;fillColor=none;spacing=5;spacingTop=-20;whiteSpace=wrap;overflow=hidden;rounded=0;" vertex="1" parent="1">
          <mxGeometry x="460" y="265" width="860" height="80" as="geometry" />
        </mxCell>
        <mxCell id="Ekm4awPdQ3NhtNFBM7wf-4" value="&lt;h1&gt;Projects&lt;/h1&gt;&lt;p&gt;Lorem ipsum dolor sit amet, consectetur adipisicing elit, sed do eiusmod tempor incididunt ut labore et dolore magna aliqua.&amp;nbsp;&lt;/p&gt;Arcu dictum varius duis at consectetur. Morbi tincidunt augue interdum velit euismod in pellentesque massa. Pharetra diam sit amet nisl. Ultrices mi tempus imperdiet nulla malesuada pellentesque elit eget. Nisi vitae suscipit tellus mauris a diam maecenas. Mauris pellentesque pulvinar pellentesque habitant morbi. Eget aliquet nibh praesent tristique magna sit amet purus gravida. Mattis rhoncus urna neque viverra justo nec ultrices dui sapien. Amet nisl purus in mollis. Arcu non odio euismod lacinia at quis." style="text;html=1;strokeColor=none;fillColor=none;spacing=5;spacingTop=-20;whiteSpace=wrap;overflow=hidden;rounded=0;" vertex="1" parent="1">
          <mxGeometry x="460" y="360" width="1050" height="160" as="geometry" />
        </mxCell>
        <mxCell id="af-1cBShx83j1TZW54wE-12" value="&lt;font style=&quot;font-size: 20px;&quot;&gt;Corporate Members&lt;/font&gt;" style="rounded=0;whiteSpace=wrap;html=1;" vertex="1" parent="1">
          <mxGeometry x="320" y="640" width="960" height="80" as="geometry" />
        </mxCell>
        <mxCell id="af-1cBShx83j1TZW54wE-13" value="" style="rounded=0;whiteSpace=wrap;html=1;" vertex="1" parent="1">
          <mxGeometry x="70" y="760" width="1470" height="560" as="geometry" />
        </mxCell>
        <mxCell id="af-1cBShx83j1TZW54wE-14" value="&lt;h1&gt;&lt;br&gt;&lt;/h1&gt;" style="text;html=1;strokeColor=none;fillColor=none;spacing=5;spacingTop=-20;whiteSpace=wrap;overflow=hidden;rounded=0;" vertex="1" parent="1">
          <mxGeometry x="125" y="800" width="1355" height="480" as="geometry" />
        </mxCell>
        <mxCell id="FbmDt95AW5lOq0m1YPwo-9" value="" style="verticalLabelPosition=bottom;shadow=0;dashed=0;align=center;html=1;verticalAlign=top;strokeWidth=1;shape=mxgraph.mockup.graphics.simpleIcon;strokeColor=#999999;" vertex="1" parent="1">
          <mxGeometry x="1290" y="1050" width="200" height="240" as="geometry" />
        </mxCell>
        <mxCell id="FbmDt95AW5lOq0m1YPwo-10" value="" style="verticalLabelPosition=bottom;shadow=0;dashed=0;align=center;html=1;verticalAlign=top;strokeWidth=1;shape=mxgraph.mockup.graphics.simpleIcon;strokeColor=#999999;" vertex="1" parent="1">
          <mxGeometry x="1290" y="790" width="200" height="240" as="geometry" />
        </mxCell>
        <mxCell id="FbmDt95AW5lOq0m1YPwo-14" value="" style="verticalLabelPosition=bottom;shadow=0;dashed=0;align=center;html=1;verticalAlign=top;strokeWidth=1;shape=mxgraph.mockup.graphics.simpleIcon;strokeColor=#999999;" vertex="1" parent="1">
          <mxGeometry x="1060" y="1050" width="200" height="240" as="geometry" />
        </mxCell>
        <mxCell id="FbmDt95AW5lOq0m1YPwo-15" value="" style="verticalLabelPosition=bottom;shadow=0;dashed=0;align=center;html=1;verticalAlign=top;strokeWidth=1;shape=mxgraph.mockup.graphics.simpleIcon;strokeColor=#999999;" vertex="1" parent="1">
          <mxGeometry x="1060" y="790" width="200" height="240" as="geometry" />
        </mxCell>
        <mxCell id="FbmDt95AW5lOq0m1YPwo-16" value="" style="verticalLabelPosition=bottom;shadow=0;dashed=0;align=center;html=1;verticalAlign=top;strokeWidth=1;shape=mxgraph.mockup.graphics.simpleIcon;strokeColor=#999999;" vertex="1" parent="1">
          <mxGeometry x="820" y="1050" width="200" height="240" as="geometry" />
        </mxCell>
        <mxCell id="FbmDt95AW5lOq0m1YPwo-17" value="" style="verticalLabelPosition=bottom;shadow=0;dashed=0;align=center;html=1;verticalAlign=top;strokeWidth=1;shape=mxgraph.mockup.graphics.simpleIcon;strokeColor=#999999;" vertex="1" parent="1">
          <mxGeometry x="820" y="790" width="200" height="240" as="geometry" />
        </mxCell>
        <mxCell id="FbmDt95AW5lOq0m1YPwo-18" value="" style="verticalLabelPosition=bottom;shadow=0;dashed=0;align=center;html=1;verticalAlign=top;strokeWidth=1;shape=mxgraph.mockup.graphics.simpleIcon;strokeColor=#999999;" vertex="1" parent="1">
          <mxGeometry x="580" y="1050" width="200" height="240" as="geometry" />
        </mxCell>
        <mxCell id="FbmDt95AW5lOq0m1YPwo-19" value="" style="verticalLabelPosition=bottom;shadow=0;dashed=0;align=center;html=1;verticalAlign=top;strokeWidth=1;shape=mxgraph.mockup.graphics.simpleIcon;strokeColor=#999999;" vertex="1" parent="1">
          <mxGeometry x="580" y="790" width="200" height="240" as="geometry" />
        </mxCell>
        <mxCell id="FbmDt95AW5lOq0m1YPwo-20" value="" style="verticalLabelPosition=bottom;shadow=0;dashed=0;align=center;html=1;verticalAlign=top;strokeWidth=1;shape=mxgraph.mockup.graphics.simpleIcon;strokeColor=#999999;" vertex="1" parent="1">
          <mxGeometry x="340" y="1050" width="200" height="240" as="geometry" />
        </mxCell>
        <mxCell id="FbmDt95AW5lOq0m1YPwo-21" value="" style="verticalLabelPosition=bottom;shadow=0;dashed=0;align=center;html=1;verticalAlign=top;strokeWidth=1;shape=mxgraph.mockup.graphics.simpleIcon;strokeColor=#999999;" vertex="1" parent="1">
          <mxGeometry x="340" y="790" width="200" height="240" as="geometry" />
        </mxCell>
        <mxCell id="FbmDt95AW5lOq0m1YPwo-22" value="" style="verticalLabelPosition=bottom;shadow=0;dashed=0;align=center;html=1;verticalAlign=top;strokeWidth=1;shape=mxgraph.mockup.graphics.simpleIcon;strokeColor=#999999;" vertex="1" parent="1">
          <mxGeometry x="105" y="1050" width="200" height="240" as="geometry" />
        </mxCell>
        <mxCell id="FbmDt95AW5lOq0m1YPwo-23" value="" style="verticalLabelPosition=bottom;shadow=0;dashed=0;align=center;html=1;verticalAlign=top;strokeWidth=1;shape=mxgraph.mockup.graphics.simpleIcon;strokeColor=#999999;" vertex="1" parent="1">
          <mxGeometry x="105" y="790" width="200" height="240" as="geometry" />
        </mxCell>
      </root>
    </mxGraphModel>
  </diagram>
  <diagram id="W1wtMlsqldo_isd1r4fm" name="Join">
    <mxGraphModel dx="2016" dy="1196" grid="1" gridSize="10" guides="1" tooltips="1" connect="1" arrows="1" fold="1" page="1" pageScale="1" pageWidth="1600" pageHeight="1400" math="0" shadow="0">
      <root>
        <mxCell id="0" />
        <mxCell id="1" parent="0" />
        <mxCell id="znH5M7_CxCIYOg-Ep0f_-1" value="" style="rounded=0;whiteSpace=wrap;html=1;" vertex="1" parent="1">
          <mxGeometry y="1320" width="1600" height="80" as="geometry" />
        </mxCell>
        <mxCell id="znH5M7_CxCIYOg-Ep0f_-2" value="Nelson Monteiro, Portugal" style="text;html=1;strokeColor=none;fillColor=none;align=center;verticalAlign=middle;whiteSpace=wrap;rounded=0;" vertex="1" parent="1">
          <mxGeometry x="10" y="1330" width="420" height="60" as="geometry" />
        </mxCell>
        <mxCell id="znH5M7_CxCIYOg-Ep0f_-3" value="Contact information" style="text;html=1;strokeColor=none;fillColor=none;align=center;verticalAlign=middle;whiteSpace=wrap;rounded=0;" vertex="1" parent="1">
          <mxGeometry x="1170" y="1330" width="420" height="60" as="geometry" />
        </mxCell>
        <mxCell id="znH5M7_CxCIYOg-Ep0f_-4" value="Last modification" style="text;html=1;strokeColor=none;fillColor=none;align=center;verticalAlign=middle;whiteSpace=wrap;rounded=0;" vertex="1" parent="1">
          <mxGeometry x="585" y="1330" width="420" height="60" as="geometry" />
        </mxCell>
        <mxCell id="NOrzsgTSsfHSJWd6UhqO-1" value="" style="rounded=0;whiteSpace=wrap;html=1;" vertex="1" parent="1">
          <mxGeometry width="1600" height="80" as="geometry" />
        </mxCell>
        <mxCell id="NOrzsgTSsfHSJWd6UhqO-2" value="" style="verticalLabelPosition=bottom;shadow=0;dashed=0;align=center;html=1;verticalAlign=top;strokeWidth=1;shape=mxgraph.mockup.graphics.simpleIcon;strokeColor=#999999;" vertex="1" parent="1">
          <mxGeometry x="55" y="15" width="50" height="50" as="geometry" />
        </mxCell>
        <mxCell id="NOrzsgTSsfHSJWd6UhqO-3" value="Logo" style="text;html=1;strokeColor=none;fillColor=none;align=center;verticalAlign=middle;whiteSpace=wrap;rounded=0;" vertex="1" parent="1">
          <mxGeometry x="40" y="25" width="80" height="30" as="geometry" />
        </mxCell>
        <mxCell id="NOrzsgTSsfHSJWd6UhqO-4" value="Home" style="rounded=0;whiteSpace=wrap;html=1;" vertex="1" parent="1">
          <mxGeometry x="800" y="20" width="120" height="40" as="geometry" />
        </mxCell>
        <mxCell id="NOrzsgTSsfHSJWd6UhqO-5" value="Join" style="rounded=0;whiteSpace=wrap;html=1;" vertex="1" parent="1">
          <mxGeometry x="1280" y="20" width="120" height="40" as="geometry" />
        </mxCell>
        <mxCell id="NOrzsgTSsfHSJWd6UhqO-6" value="Directory" style="rounded=0;whiteSpace=wrap;html=1;" vertex="1" parent="1">
          <mxGeometry x="1120" y="20" width="120" height="40" as="geometry" />
        </mxCell>
        <mxCell id="NOrzsgTSsfHSJWd6UhqO-7" value="Discover" style="rounded=0;whiteSpace=wrap;html=1;" vertex="1" parent="1">
          <mxGeometry x="960" y="20" width="120" height="40" as="geometry" />
        </mxCell>
        <mxCell id="NOrzsgTSsfHSJWd6UhqO-8" value="&lt;font style=&quot;font-size: 20px;&quot;&gt;PortoCC&lt;/font&gt;" style="text;html=1;strokeColor=none;fillColor=none;align=center;verticalAlign=middle;whiteSpace=wrap;rounded=0;" vertex="1" parent="1">
          <mxGeometry x="150" width="380" height="80" as="geometry" />
        </mxCell>
        <mxCell id="fXjMjzHhMFb96yRoYwsT-1" value="Chamber of Commerce - Porto" style="rounded=0;whiteSpace=wrap;html=1;" vertex="1" parent="1">
          <mxGeometry x="320" y="160" width="960" height="60" as="geometry" />
        </mxCell>
        <mxCell id="yCT_NavKNeRrtOwJ2KtC-1" value="" style="rounded=0;whiteSpace=wrap;html=1;" vertex="1" parent="1">
          <mxGeometry x="120" y="280" width="640" height="880" as="geometry" />
        </mxCell>
        <mxCell id="yCT_NavKNeRrtOwJ2KtC-3" value="Benefits" style="swimlane;fontStyle=0;childLayout=stackLayout;horizontal=1;startSize=80;horizontalStack=0;resizeParent=1;resizeParentMax=0;resizeLast=0;collapsible=1;marginBottom=0;whiteSpace=wrap;html=1;" vertex="1" parent="1">
          <mxGeometry x="840" y="280" width="640" height="880" as="geometry" />
        </mxCell>
        <mxCell id="yCT_NavKNeRrtOwJ2KtC-4" value="Item 1" style="text;strokeColor=none;fillColor=none;align=left;verticalAlign=middle;spacingLeft=4;spacingRight=4;overflow=hidden;points=[[0,0.5],[1,0.5]];portConstraint=eastwest;rotatable=0;whiteSpace=wrap;html=1;" vertex="1" parent="yCT_NavKNeRrtOwJ2KtC-3">
          <mxGeometry y="80" width="640" height="240" as="geometry" />
        </mxCell>
        <mxCell id="yCT_NavKNeRrtOwJ2KtC-5" value="Item 2" style="text;strokeColor=none;fillColor=none;align=left;verticalAlign=middle;spacingLeft=4;spacingRight=4;overflow=hidden;points=[[0,0.5],[1,0.5]];portConstraint=eastwest;rotatable=0;whiteSpace=wrap;html=1;" vertex="1" parent="yCT_NavKNeRrtOwJ2KtC-3">
          <mxGeometry y="320" width="640" height="240" as="geometry" />
        </mxCell>
        <mxCell id="yCT_NavKNeRrtOwJ2KtC-6" value="Item 3" style="text;strokeColor=none;fillColor=none;align=left;verticalAlign=middle;spacingLeft=4;spacingRight=4;overflow=hidden;points=[[0,0.5],[1,0.5]];portConstraint=eastwest;rotatable=0;whiteSpace=wrap;html=1;" vertex="1" parent="yCT_NavKNeRrtOwJ2KtC-3">
          <mxGeometry y="560" width="640" height="320" as="geometry" />
        </mxCell>
        <mxCell id="yCT_NavKNeRrtOwJ2KtC-36" value="" style="rounded=0;whiteSpace=wrap;html=1;" vertex="1" parent="1">
          <mxGeometry x="165" y="400" width="550" height="40" as="geometry" />
        </mxCell>
        <mxCell id="yCT_NavKNeRrtOwJ2KtC-42" value="Form" style="text;html=1;strokeColor=none;fillColor=none;align=center;verticalAlign=middle;whiteSpace=wrap;rounded=0;" vertex="1" parent="1">
          <mxGeometry x="410" y="310" width="60" height="30" as="geometry" />
        </mxCell>
        <mxCell id="yCT_NavKNeRrtOwJ2KtC-43" value="" style="rounded=0;whiteSpace=wrap;html=1;" vertex="1" parent="1">
          <mxGeometry x="165" y="880" width="550" height="160" as="geometry" />
        </mxCell>
        <mxCell id="yCT_NavKNeRrtOwJ2KtC-44" value="" style="rounded=0;whiteSpace=wrap;html=1;" vertex="1" parent="1">
          <mxGeometry x="165" y="800" width="550" height="40" as="geometry" />
        </mxCell>
        <mxCell id="yCT_NavKNeRrtOwJ2KtC-45" value="" style="rounded=0;whiteSpace=wrap;html=1;" vertex="1" parent="1">
          <mxGeometry x="165" y="720" width="550" height="40" as="geometry" />
        </mxCell>
        <mxCell id="yCT_NavKNeRrtOwJ2KtC-46" value="" style="rounded=0;whiteSpace=wrap;html=1;" vertex="1" parent="1">
          <mxGeometry x="165" y="640" width="550" height="40" as="geometry" />
        </mxCell>
        <mxCell id="yCT_NavKNeRrtOwJ2KtC-47" value="" style="rounded=0;whiteSpace=wrap;html=1;" vertex="1" parent="1">
          <mxGeometry x="165" y="560" width="550" height="40" as="geometry" />
        </mxCell>
        <mxCell id="yCT_NavKNeRrtOwJ2KtC-48" value="" style="rounded=0;whiteSpace=wrap;html=1;" vertex="1" parent="1">
          <mxGeometry x="165" y="480" width="550" height="40" as="geometry" />
        </mxCell>
        <mxCell id="yCT_NavKNeRrtOwJ2KtC-49" value="Join Chamber" style="strokeWidth=1;shadow=0;dashed=0;align=center;html=1;shape=mxgraph.mockup.buttons.button;strokeColor=#666666;fontColor=#ffffff;mainText=;buttonStyle=round;fontSize=17;fontStyle=1;fillColor=#008cff;whiteSpace=wrap;" vertex="1" parent="1">
          <mxGeometry x="170" y="1080" width="150" height="40" as="geometry" />
        </mxCell>
      </root>
    </mxGraphModel>
  </diagram>
</mxfile>
